# xmcd
#
# Track frame offsets: 
#        150
#        17067
#        31872
#        47128
#        62443
#        77996
#        92532
#        105831
#        120617
#        133266
#        149537
#        164565
#        180151
#        195917
#        212032
#        225301
#        237620
#        251996
#        264641
#        279024
#
# Disc length: 3910 seconds
#
# Revision: 0
# Processed by: cddbd v1.5.2PL0 Copyright (c) Steve Scherf et al.
# Submitted via: ExactAudioCopy v1.0b3
#
DISCID=0d0f4414
DTITLE=Various Artist - 青春歌年鑑 戦前編3  昭和13年～14年 Disc 1 UICZ-8036-7
DYEAR=1900
DGENRE=Blues
TTITLE0=鴛鴦道中
TTITLE1=上海だより
TTITLE2=皇国の母
TTITLE3=湖上の尺八
TTITLE4=愛国の花 
TTITLE5=陣中髭くらべ 
TTITLE6=雨のブルース
TTITLE7=バンジョーで唄えば
TTITLE8=人生劇場 
TTITLE9=上海の街角で
TTITLE10=波止場気質
TTITLE11=旅の夜風
TTITLE12=悲しき子守唄 
TTITLE13=シナの夜 
TTITLE14=母子船頭唄
TTITLE15=満州娘
TTITLE16=麦と兵隊
TTITLE17=上海ブルース 
TTITLE18=或る雨の午后
TTITLE19=涯なき泥濘
EXTD=
EXTT0=
EXTT1=
EXTT2=
EXTT3=
EXTT4=
EXTT5=
EXTT6=
EXTT7=
EXTT8=
EXTT9=
EXTT10=
EXTT11=
EXTT12=
EXTT13=
EXTT14=
EXTT15=
EXTT16=
EXTT17=
EXTT18=
EXTT19=
PLAYORDER=
